<?xml version="1.0" encoding="utf-8"?>
<!-- Generator: Adobe Illustrator 16.0.3, SVG Export Plug-In . SVG Version: 6.00 Build 0)  -->
<!DOCTYPE svg PUBLIC "-//W3C//DTD SVG 1.1//EN" "http://www.w3.org/Graphics/SVG/1.1/DTD/svg11.dtd">
<svg version="1.1" id="GRAVITY-LOGO" xmlns="http://www.w3.org/2000/svg" xmlns:xlink="http://www.w3.org/1999/xlink" x="0px"
	 y="0px" width="664.249px" height="127.11px" viewBox="0 0 664.249 127.11" enable-background="new 0 0 664.249 127.11"
	 xml:space="preserve">
<circle fill-rule="evenodd" clip-rule="evenodd" fill="#347FAD" cx="60.898" cy="18.315" r="16.398"/>
<circle fill-rule="evenodd" clip-rule="evenodd" fill="#347FAD" cx="60.898" cy="62.315" r="16.398"/>
<circle fill-rule="evenodd" clip-rule="evenodd" fill="#7BD707" cx="60.898" cy="107.314" r="16.398"/>
<circle fill-rule="evenodd" clip-rule="evenodd" fill="#7BD707" cx="105.398" cy="18.315" r="16.398"/>
<circle fill-rule="evenodd" clip-rule="evenodd" fill="#7BD707" cx="105.398" cy="62.315" r="16.398"/>
<circle fill-rule="evenodd" clip-rule="evenodd" fill="#7BD707" cx="105.398" cy="107.314" r="16.398"/>
<circle fill-rule="evenodd" clip-rule="evenodd" fill="#7BD707" cx="16.398" cy="18.315" r="16.398"/>
<circle fill-rule="evenodd" clip-rule="evenodd" fill="#347FAD" cx="16.398" cy="62.315" r="16.398"/>
<circle fill-rule="evenodd" clip-rule="evenodd" fill="#7BD707" cx="16.398" cy="107.314" r="16.398"/>
<path fill="#727272" d="M207.373,48.422h-16.061c-2.415,0-3.622-0.804-3.622-2.415c0-1.77,1.207-2.657,3.622-2.657h21.132v22.581
	c0,1.771-0.12,3.302-0.362,4.589c-0.241,1.288-0.705,2.617-1.389,3.984c-0.685,1.37-1.853,2.415-3.502,3.14
	c-1.65,0.725-3.724,1.087-6.219,1.087h-17.025c-4.187,0-7.649-0.241-10.385-0.725c-2.738-0.482-5.313-1.449-7.729-2.898
	c-2.415-1.448-4.187-3.622-5.313-6.521c-1.129-2.897-1.69-6.56-1.69-10.988V23.064c0-4.426,0.562-8.09,1.69-10.989
	c1.126-2.898,2.897-5.071,5.313-6.521c2.415-1.449,4.99-2.415,7.729-2.898c2.735-0.483,6.198-0.725,10.385-0.725h17.025
	c2.495,0,4.568,0.362,6.219,1.087c1.649,0.725,2.817,1.771,3.502,3.14c0.684,1.37,1.147,2.698,1.389,3.985
	c0.242,1.289,0.362,2.818,0.362,4.588c0,2.496-0.845,3.743-2.535,3.743c-1.691,0-2.536-1.166-2.536-3.501
	c0-2.898-0.524-4.951-1.57-6.159c-1.047-1.208-2.939-1.811-5.675-1.811h-16.181c-3.864,0-6.864,0.142-8.996,0.422
	c-2.134,0.283-4.127,0.966-5.978,2.053c-1.853,1.087-3.16,2.717-3.924,4.891c-0.767,2.173-1.147,5.072-1.147,8.694v34.535
	c0,3.623,0.381,6.521,1.147,8.694c0.764,2.174,2.071,3.804,3.924,4.891c1.851,1.087,3.844,1.771,5.978,2.053
	c2.132,0.283,5.132,0.423,8.996,0.423h16.181c2.735,0,4.628-0.604,5.675-1.812c1.046-1.208,1.57-3.261,1.57-6.158V48.422z"/>
<path fill="#727272" d="M254.539,76.315c0,2.174-0.887,3.261-2.657,3.261c-1.611,0-2.415-1.087-2.415-3.261V5.676
	c0-2.495,0.765-3.744,2.295-3.744h21.252c8.29,0,14.53,1.289,18.717,3.864c4.185,2.577,6.279,7.326,6.279,14.249
	c0,5.072-1.289,9.098-3.864,12.075c-2.577,2.979-6.239,4.83-10.988,5.555c2.656,2.094,5.292,6.3,7.909,12.619
	c2.615,6.32,4.588,11.996,5.917,17.026c1.328,5.032,1.992,8.03,1.992,8.996c0,2.174-0.887,3.261-2.656,3.261
	c-0.725,0-1.31-0.323-1.751-0.967c-0.443-0.643-0.664-1.407-0.664-2.294c0-1.126-0.564-3.984-1.691-8.573
	c-1.128-4.589-3.06-10.022-5.796-16.302c-2.737-6.279-5.796-10.747-9.177-13.403h-22.701V76.315z M273.014,32.965
	c7.245,0,12.377-0.845,15.396-2.536c3.02-1.69,4.528-5.151,4.528-10.385c0-5.313-1.509-8.815-4.528-10.505
	c-3.019-1.69-8.15-2.536-15.396-2.536h-18.475v25.961H273.014z"/>
<path fill="#727272" d="M329.478,80.662c-1.69,0-2.536-0.806-2.536-2.415c0-0.482,0.121-1.045,0.362-1.69l27.169-74.625h5.555
	l27.169,74.625c0.242,0.646,0.362,1.208,0.362,1.69c0,1.609-0.845,2.415-2.535,2.415c-1.129,0-2.014-0.806-2.657-2.415l-8.694-24.15
	h-32.844l-8.694,24.15C331.409,79.856,330.522,80.662,329.478,80.662z M342.76,49.025h28.98L357.129,9.298L342.76,49.025z"/>
<path fill="#727272" d="M406.106,2.415c0-0.562,0.181-1.045,0.543-1.449c0.362-0.402,0.725-0.664,1.087-0.785
	C408.099,0.061,408.4,0,408.643,0c1.045,0,1.932,0.806,2.656,2.415l25.116,69.07l25.116-69.07C462.175,0.806,463.06,0,464.188,0
	c0.241,0,0.543,0.061,0.905,0.181c0.362,0.121,0.725,0.383,1.087,0.785c0.362,0.404,0.543,0.887,0.543,1.449
	c0,0.483-0.12,1.087-0.362,1.812L439.192,78.73h-5.555L406.469,4.227C406.228,3.502,406.106,2.898,406.106,2.415z"/>
<path fill="#727272" d="M503.264,76.315c0,2.174-0.887,3.261-2.656,3.261c-1.611,0-2.415-1.087-2.415-3.261V4.468
	c0-2.252,0.845-3.381,2.535-3.381s2.536,1.128,2.536,3.381V76.315z"/>
<path fill="#727272" d="M580.858,1.932c2.253,0,3.381,0.887,3.381,2.657c0,1.611-1.128,2.415-3.381,2.415h-18.596v69.312
	c0,2.174-0.887,3.261-2.656,3.261c-1.611,0-2.415-1.087-2.415-3.261V7.004h-18.717c-2.255,0-3.381-0.845-3.381-2.536
	c0-1.69,1.126-2.536,3.381-2.536H580.858z"/>
<path fill="#727272" d="M633.699,41.297L608.824,5.796c-0.564-0.804-0.846-1.57-0.846-2.294c0-0.644,0.261-1.208,0.785-1.69
	c0.522-0.483,1.066-0.725,1.63-0.725c0.804,0,1.649,0.646,2.536,1.932l23.185,32.965l23.063-32.965
	c1.045-1.287,1.932-1.932,2.656-1.932c0.563,0,1.105,0.242,1.631,0.725c0.522,0.483,0.784,1.047,0.784,1.69
	c0,0.725-0.283,1.491-0.845,2.294L638.65,41.297v35.018c0,2.174-0.846,3.261-2.536,3.261c-1.611,0-2.415-1.087-2.415-3.261V41.297z"
	/>
<path fill="#9A9A9A" d="M166.706,113.834c0.568,0.551,1.119,1.472,1.653,2.764c0.533,1.291,0.93,2.428,1.188,3.409
	c0.258,0.981,0.387,1.567,0.387,1.757c0,0.241-0.064,0.438-0.193,0.594s-0.297,0.232-0.504,0.232c-0.206,0-0.366-0.082-0.478-0.245
	c-0.112-0.164-0.168-0.357-0.168-0.581s-0.121-0.792-0.361-1.705c-0.242-0.912-0.655-1.997-1.24-3.255
	c-0.586-1.257-1.24-2.16-1.963-2.712h-4.856v7.672c0,0.551-0.232,0.826-0.697,0.826c-0.431,0-0.646-0.275-0.646-0.826v-14.853
	c0-0.62,0.206-0.93,0.62-0.93h4.649c1.876,0,3.284,0.279,4.223,0.838s1.408,1.592,1.408,3.099
	C169.729,112.107,168.721,113.413,166.706,113.834z M164.098,112.749c1.602,0,2.716-0.177,3.345-0.529
	c0.628-0.353,0.942-1.076,0.942-2.17c0-1.129-0.318-1.865-0.955-2.209c-0.638-0.344-1.748-0.517-3.332-0.517h-3.927v5.425H164.098z"
	/>
<path fill="#9A9A9A" d="M194.891,115.048v1.033h-10.9v1.756c0,0.741,0.073,1.326,0.22,1.757s0.427,0.754,0.84,0.969
	c0.413,0.216,0.856,0.353,1.33,0.413s1.149,0.091,2.027,0.091h3.462c0.551,0,0.925-0.121,1.123-0.362
	c0.198-0.24,0.297-0.654,0.297-1.239c0-0.568,0.224-0.853,0.672-0.853c0.447,0,0.672,0.31,0.672,0.93
	c0,0.396-0.026,0.74-0.078,1.033s-0.159,0.59-0.322,0.892c-0.164,0.301-0.431,0.533-0.801,0.697
	c-0.371,0.164-0.831,0.245-1.382,0.245h-3.643c-1.98,0-3.436-0.306-4.365-0.917s-1.395-1.821-1.395-3.629v-2.815
	c0-1.809,0.465-3.018,1.395-3.629s2.385-0.917,4.365-0.917h0.749c1.98,0,3.432,0.306,4.353,0.917S194.891,113.239,194.891,115.048z
	 M189.156,111.845h-0.749c-1.67,0-2.819,0.177-3.448,0.529c-0.629,0.354-0.951,1.142-0.969,2.363h9.558
	c-0.018-1.222-0.341-2.01-0.969-2.363C191.95,112.021,190.81,111.845,189.156,111.845z"/>
<path fill="#9A9A9A" d="M210.31,122.409c-0.552,0-1.012-0.081-1.382-0.245s-0.638-0.396-0.801-0.697
	c-0.164-0.302-0.271-0.599-0.323-0.892s-0.077-0.637-0.077-1.033c0-0.62,0.224-0.93,0.672-0.93c0.447,0,0.671,0.284,0.671,0.853
	c0,0.585,0.1,0.999,0.298,1.239c0.197,0.241,0.572,0.362,1.123,0.362h6.406c1.016,0,1.523-0.638,1.523-1.912
	c0-0.637-0.142-1.157-0.426-1.563c-0.284-0.404-0.65-0.606-1.098-0.606h-5.838c-2.222,0-3.332-1.12-3.332-3.358
	c0-1.033,0.267-1.813,0.801-2.338c0.533-0.524,1.464-0.787,2.79-0.787h5.812c0.551,0,1.011,0.081,1.382,0.245
	c0.37,0.164,0.637,0.4,0.801,0.71c0.163,0.311,0.271,0.611,0.322,0.904c0.052,0.293,0.078,0.638,0.078,1.033
	c0,0.603-0.225,0.904-0.672,0.904c-0.448,0-0.672-0.284-0.672-0.853c0-0.603-0.103-1.021-0.31-1.253s-0.577-0.349-1.11-0.349h-6.354
	c-1.017,0-1.524,0.594-1.524,1.782c0,0.654,0.143,1.154,0.427,1.498c0.284,0.345,0.649,0.517,1.098,0.517h5.863
	c1.205,0,2.058,0.336,2.558,1.008c0.499,0.671,0.749,1.507,0.749,2.505c0,1.068-0.271,1.877-0.813,2.429
	c-0.543,0.551-1.46,0.826-2.751,0.826H210.31z"/>
<path fill="#9A9A9A" d="M244.998,115.048v1.033h-10.9v1.756c0,0.741,0.073,1.326,0.22,1.757s0.427,0.754,0.84,0.969
	c0.413,0.216,0.856,0.353,1.33,0.413s1.149,0.091,2.027,0.091h3.462c0.551,0,0.925-0.121,1.123-0.362
	c0.198-0.24,0.297-0.654,0.297-1.239c0-0.568,0.224-0.853,0.672-0.853c0.447,0,0.672,0.31,0.672,0.93
	c0,0.396-0.026,0.74-0.078,1.033s-0.159,0.59-0.322,0.892c-0.164,0.301-0.431,0.533-0.801,0.697
	c-0.371,0.164-0.831,0.245-1.382,0.245h-3.643c-1.98,0-3.436-0.306-4.365-0.917s-1.395-1.821-1.395-3.629v-2.815
	c0-1.809,0.465-3.018,1.395-3.629s2.385-0.917,4.365-0.917h0.749c1.98,0,3.432,0.306,4.353,0.917S244.998,113.239,244.998,115.048z
	 M239.264,111.845h-0.749c-1.67,0-2.819,0.177-3.448,0.529c-0.629,0.354-0.951,1.142-0.969,2.363h9.558
	c-0.018-1.222-0.341-2.01-0.969-2.363C242.058,112.021,240.917,111.845,239.264,111.845z"/>
<path fill="#9A9A9A" d="M263.593,114.789h3.798v-1.472c0-0.534-0.1-0.913-0.298-1.137s-0.572-0.336-1.123-0.336h-3.643
	c-2.101,0-3.151,0.517-3.151,1.55c0,0.603-0.232,0.904-0.697,0.904c-0.431,0-0.646-0.302-0.646-0.904
	c0-0.999,0.396-1.73,1.188-2.195c0.792-0.465,1.834-0.697,3.125-0.697h4.004c0.998,0,1.679,0.241,2.04,0.723
	c0.362,0.482,0.543,1.326,0.543,2.531v7.956c0,0.586-0.224,0.878-0.672,0.878s-0.671-0.301-0.671-0.904v-0.903
	c-0.982,1.085-2.446,1.627-4.392,1.627h-2.402c-0.81,0-1.472-0.288-1.989-0.865c-0.516-0.577-0.774-1.348-0.774-2.312
	c0-1.739,0.469-2.915,1.408-3.526C260.179,115.096,261.63,114.789,263.593,114.789z M263.593,116.133
	c-0.878,0-1.554,0.03-2.027,0.09c-0.474,0.061-0.917,0.198-1.33,0.413c-0.413,0.216-0.693,0.539-0.84,0.969
	c-0.146,0.431-0.22,1.017-0.22,1.757c0,0.448,0.146,0.844,0.439,1.188s0.62,0.517,0.981,0.517h2.402c1.446,0,2.54-0.392,3.28-1.176
	c0.74-0.783,1.111-1.907,1.111-3.371v-0.387H263.593z"/>
<path fill="#9A9A9A" d="M287.846,111.845c-1.343,0-2.372,0.396-3.087,1.188s-1.071,1.929-1.071,3.409v5.27
	c0,0.586-0.225,0.878-0.672,0.878c-0.448,0-0.672-0.292-0.672-0.878v-10.487c0-0.603,0.207-0.904,0.62-0.904
	c0.482,0,0.724,0.311,0.724,0.931v0.878c1.016-1.085,2.402-1.627,4.158-1.627h1.188c0.603,0,0.904,0.224,0.904,0.671
	c0,0.448-0.302,0.672-0.904,0.672H287.846z"/>
<path fill="#9A9A9A" d="M310.963,122.409h-3.643c-1.98,0-3.436-0.306-4.365-0.917s-1.395-1.821-1.395-3.629v-2.815
	c0-1.809,0.465-3.018,1.395-3.629s2.385-0.917,4.365-0.917h3.643c0.551,0,1.011,0.081,1.382,0.245c0.37,0.164,0.637,0.4,0.801,0.71
	c0.163,0.311,0.271,0.611,0.322,0.904s0.078,0.638,0.078,1.033c0,0.603-0.225,0.904-0.672,0.904c-0.448,0-0.672-0.284-0.672-0.853
	c0-0.603-0.103-1.021-0.31-1.253s-0.577-0.349-1.11-0.349h-3.462c-0.878,0-1.554,0.03-2.027,0.091s-0.917,0.197-1.33,0.413
	c-0.413,0.215-0.693,0.538-0.84,0.969s-0.22,1.016-0.22,1.756v2.764c0,0.741,0.073,1.326,0.22,1.757s0.427,0.754,0.84,0.969
	c0.413,0.216,0.856,0.353,1.33,0.413s1.149,0.091,2.027,0.091h3.462c0.551,0,0.925-0.121,1.123-0.362
	c0.198-0.24,0.297-0.654,0.297-1.239c0-0.568,0.224-0.853,0.672-0.853c0.447,0,0.672,0.31,0.672,0.93
	c0,0.396-0.026,0.74-0.078,1.033s-0.159,0.59-0.322,0.892c-0.164,0.301-0.431,0.533-0.801,0.697
	C311.974,122.328,311.514,122.409,310.963,122.409z"/>
<path fill="#9A9A9A" d="M332.58,111.845c-1.464,0-2.566,0.392-3.307,1.175c-0.74,0.784-1.11,1.925-1.11,3.423v5.27
	c0,0.586-0.224,0.878-0.672,0.878c-0.447,0-0.671-0.292-0.671-0.878V106.73c0-0.62,0.206-0.93,0.62-0.93
	c0.481,0,0.723,0.31,0.723,0.93v5.398c1.016-1.085,2.488-1.627,4.417-1.627h0.749c1.98,0,3.431,0.306,4.353,0.917
	c0.921,0.611,1.382,1.82,1.382,3.629v6.664c0,0.586-0.216,0.878-0.646,0.878c-0.465,0-0.697-0.292-0.697-0.878v-6.639
	c0-0.74-0.074-1.325-0.22-1.756c-0.146-0.431-0.422-0.754-0.827-0.969c-0.404-0.216-0.844-0.353-1.317-0.413
	s-1.149-0.091-2.027-0.091H332.58z"/>
<path fill="#9A9A9A" d="M377.237,108.771c0,0.173-0.065,0.323-0.195,0.452c-0.13,0.13-0.291,0.194-0.481,0.194
	c-0.208,0-0.412-0.13-0.611-0.388c-0.2-0.259-0.382-0.547-0.547-0.865s-0.417-0.607-0.755-0.865
	c-0.338-0.259-0.725-0.388-1.158-0.388c-0.814,0-1.557,0.293-2.225,0.878c-0.668,0.586-1.002,1.36-1.002,2.325
	c0,0.62,0.329,1.3,0.988,2.04l6.136,7.026c0.503-0.74,0.754-1.619,0.754-2.635c0-0.62,0.237-0.93,0.712-0.93
	c0.421,0,0.632,0.31,0.632,0.93c0,1.378-0.396,2.608-1.186,3.693l1.204,1.344c0.12,0.138,0.181,0.318,0.181,0.542
	c0,0.207-0.061,0.357-0.181,0.452c-0.121,0.095-0.25,0.142-0.388,0.142c-0.262,0-0.523-0.138-0.786-0.413l-0.916-1.059
	c-1.162,1.016-2.418,1.523-3.771,1.523c-0.582,0-1.168-0.09-1.759-0.271c-0.592-0.182-1.165-0.456-1.722-0.827
	c-0.557-0.37-1.011-0.899-1.361-1.588c-0.352-0.689-0.526-1.481-0.526-2.377c0-0.844,0.172-1.679,0.517-2.506
	c0.345-0.826,0.879-1.498,1.602-2.015l-0.274-0.335c-0.799-0.999-1.198-1.912-1.198-2.738c0-1.309,0.486-2.394,1.459-3.255
	c0.973-0.86,2.028-1.291,3.164-1.291c0.551,0,1.072,0.146,1.563,0.438c0.49,0.293,0.882,0.633,1.175,1.021s0.525,0.745,0.697,1.072
	S377.237,108.65,377.237,108.771z M376.529,120.239l-5.253-6.07c-1.106,0.724-1.659,1.903-1.659,3.539
	c0,1.292,0.41,2.234,1.23,2.828c0.82,0.595,1.753,0.892,2.795,0.892C374.666,121.428,375.628,121.031,376.529,120.239z"/>
<path fill="#9A9A9A" d="M420.938,110.631v7.129c0,1.859-0.461,3.1-1.382,3.72c-0.922,0.62-2.373,0.93-4.353,0.93h-5.631
	c-0.414,0-0.62-0.31-0.62-0.93v-14.568c0-0.62,0.206-0.93,0.62-0.93h5.785c0.931,0,1.705,0.056,2.325,0.168s1.192,0.331,1.718,0.658
	s0.912,0.806,1.162,1.434C420.812,108.87,420.938,109.666,420.938,110.631z M419.594,117.76v-7.129c0-1.412-0.302-2.316-0.904-2.712
	c-0.603-0.396-1.713-0.595-3.332-0.595h-5.063v13.742h4.908c1.688,0,2.841-0.194,3.461-0.582
	C419.284,120.098,419.594,119.189,419.594,117.76z"/>
<path fill="#9A9A9A" d="M446.481,115.048v1.033h-10.9v1.756c0,0.741,0.073,1.326,0.22,1.757s0.427,0.754,0.84,0.969
	c0.413,0.216,0.856,0.353,1.33,0.413s1.149,0.091,2.027,0.091h3.462c0.551,0,0.925-0.121,1.123-0.362
	c0.198-0.24,0.297-0.654,0.297-1.239c0-0.568,0.224-0.853,0.672-0.853c0.447,0,0.672,0.31,0.672,0.93
	c0,0.396-0.026,0.74-0.078,1.033s-0.159,0.59-0.322,0.892c-0.164,0.301-0.431,0.533-0.801,0.697
	c-0.371,0.164-0.831,0.245-1.382,0.245h-3.643c-1.98,0-3.436-0.306-4.365-0.917s-1.395-1.821-1.395-3.629v-2.815
	c0-1.809,0.465-3.018,1.395-3.629s2.385-0.917,4.365-0.917h0.749c1.98,0,3.432,0.306,4.353,0.917S446.481,113.239,446.481,115.048z
	 M440.747,111.845h-0.749c-1.67,0-2.819,0.177-3.448,0.529c-0.629,0.354-0.951,1.142-0.969,2.363h9.558
	c-0.018-1.222-0.341-2.01-0.969-2.363C443.541,112.021,442.4,111.845,440.747,111.845z"/>
<path fill="#9A9A9A" d="M463.243,122.409l-4.649-11.262c-0.068-0.155-0.103-0.293-0.103-0.413c0-0.362,0.206-0.543,0.619-0.543
	c0.311,0,0.552,0.189,0.724,0.568l4.442,10.332l4.599-10.357c0.154-0.362,0.396-0.543,0.723-0.543c0.413,0,0.62,0.173,0.62,0.517
	c0,0.138-0.035,0.284-0.104,0.439l-4.959,11.262H463.243z"/>
<path fill="#9A9A9A" d="M494.495,115.048v1.033h-10.9v1.756c0,0.741,0.073,1.326,0.22,1.757s0.427,0.754,0.84,0.969
	c0.413,0.216,0.856,0.353,1.33,0.413s1.149,0.091,2.027,0.091h3.462c0.551,0,0.925-0.121,1.123-0.362
	c0.198-0.24,0.297-0.654,0.297-1.239c0-0.568,0.224-0.853,0.672-0.853c0.447,0,0.672,0.31,0.672,0.93
	c0,0.396-0.026,0.74-0.078,1.033s-0.159,0.59-0.322,0.892c-0.164,0.301-0.431,0.533-0.801,0.697
	c-0.371,0.164-0.831,0.245-1.382,0.245h-3.643c-1.98,0-3.436-0.306-4.365-0.917s-1.395-1.821-1.395-3.629v-2.815
	c0-1.809,0.465-3.018,1.395-3.629s2.385-0.917,4.365-0.917h0.749c1.98,0,3.432,0.306,4.353,0.917S494.495,113.239,494.495,115.048z
	 M488.761,111.845h-0.749c-1.67,0-2.819,0.177-3.448,0.529c-0.629,0.354-0.951,1.142-0.969,2.363h9.558
	c-0.018-1.222-0.341-2.01-0.969-2.363C491.555,112.021,490.414,111.845,488.761,111.845z"/>
<path fill="#9A9A9A" d="M510.87,122.409h-0.181c-0.999,0-1.68-0.245-2.041-0.736c-0.361-0.49-0.543-1.339-0.543-2.544v-12.425
	c0-0.603,0.224-0.903,0.672-0.903s0.672,0.301,0.672,0.903v12.863c0,0.552,0.099,0.939,0.297,1.163s0.572,0.336,1.124,0.336
	c0.603,0,0.903,0.232,0.903,0.697C511.773,122.194,511.473,122.409,510.87,122.409z"/>
<path fill="#9A9A9A" d="M530.603,122.409h-0.749c-1.98,0-3.436-0.306-4.365-0.917s-1.395-1.821-1.395-3.629v-2.815
	c0-1.809,0.465-3.018,1.395-3.629s2.385-0.917,4.365-0.917h0.749c1.98,0,3.432,0.306,4.353,0.917s1.382,1.82,1.382,3.629v2.815
	c0,1.808-0.461,3.018-1.382,3.629S532.583,122.409,530.603,122.409z M529.854,121.066h0.749c0.879,0,1.554-0.03,2.028-0.091
	c0.473-0.061,0.912-0.197,1.317-0.413c0.404-0.215,0.68-0.538,0.826-0.969s0.22-1.016,0.22-1.757v-2.764
	c0-0.74-0.073-1.325-0.22-1.756s-0.422-0.754-0.826-0.969c-0.405-0.216-0.845-0.353-1.317-0.413
	c-0.475-0.061-1.149-0.091-2.028-0.091h-0.749c-0.878,0-1.554,0.03-2.027,0.091s-0.917,0.197-1.33,0.413
	c-0.413,0.215-0.693,0.538-0.84,0.969s-0.22,1.016-0.22,1.756v2.764c0,0.741,0.073,1.326,0.22,1.757s0.427,0.754,0.84,0.969
	c0.413,0.216,0.856,0.353,1.33,0.413S528.976,121.066,529.854,121.066z"/>
<path fill="#9A9A9A" d="M561.958,117.863c0,1.808-0.461,3.018-1.382,3.629c-0.922,0.611-2.363,0.917-4.326,0.917h-5.192v3.797
	c0,0.603-0.241,0.904-0.723,0.904c-0.414,0-0.62-0.302-0.62-0.904v-15.007c0-0.586,0.224-0.879,0.671-0.879
	c0.448,0,0.672,0.302,0.672,0.904v0.904c1.016-1.085,2.488-1.627,4.417-1.627h0.749c1.98,0,3.431,0.306,4.353,0.917
	c0.921,0.611,1.382,1.82,1.382,3.629V117.863z M560.615,115.073c0-0.74-0.074-1.325-0.22-1.756
	c-0.146-0.431-0.422-0.754-0.827-0.969c-0.404-0.216-0.844-0.353-1.317-0.413s-1.149-0.091-2.027-0.091h-0.749
	c-2.944,0-4.417,1.523-4.417,4.572v4.649h5.192c1.688,0,2.837-0.189,3.448-0.568c0.61-0.379,0.917-1.266,0.917-2.661V115.073z"/>
<path fill="#9A9A9A" d="M580.038,111.845c-1.068,0-1.898,0.396-2.493,1.188c-0.594,0.792-0.891,1.929-0.891,3.409v5.27
	c0,0.586-0.225,0.878-0.672,0.878c-0.448,0-0.672-0.292-0.672-0.878v-10.487c0-0.603,0.207-0.904,0.62-0.904
	c0.482,0,0.724,0.311,0.724,0.931v0.878c0.481-0.585,0.973-1.003,1.472-1.253c0.5-0.249,1.137-0.374,1.912-0.374
	c1.171,0,2.118,0.142,2.841,0.426c0.724,0.284,1.248,0.831,1.576,1.641c0.878-1.378,2.144-2.066,3.797-2.066
	c1.584,0,2.772,0.31,3.564,0.93s1.188,1.825,1.188,3.616v6.664c0,0.586-0.225,0.878-0.672,0.878c-0.448,0-0.672-0.292-0.672-0.878
	v-6.639c0-0.74-0.056-1.325-0.168-1.756s-0.322-0.754-0.633-0.969c-0.31-0.216-0.65-0.353-1.021-0.413s-0.899-0.091-1.588-0.091
	c-1.085,0-1.929,0.396-2.531,1.188c-0.604,0.792-0.904,1.929-0.904,3.409v5.27c0,0.586-0.216,0.878-0.646,0.878
	c-0.465,0-0.697-0.292-0.697-0.878v-6.639c0-1.395-0.237-2.281-0.711-2.66S581.381,111.845,580.038,111.845z"/>
<path fill="#9A9A9A" d="M618.522,115.048v1.033h-10.9v1.756c0,0.741,0.073,1.326,0.22,1.757s0.427,0.754,0.84,0.969
	c0.413,0.216,0.856,0.353,1.33,0.413s1.149,0.091,2.027,0.091h3.462c0.551,0,0.925-0.121,1.123-0.362
	c0.198-0.24,0.297-0.654,0.297-1.239c0-0.568,0.224-0.853,0.672-0.853c0.447,0,0.672,0.31,0.672,0.93
	c0,0.396-0.026,0.74-0.078,1.033s-0.159,0.59-0.322,0.892c-0.164,0.301-0.431,0.533-0.801,0.697
	c-0.371,0.164-0.831,0.245-1.382,0.245h-3.643c-1.98,0-3.436-0.306-4.365-0.917s-1.395-1.821-1.395-3.629v-2.815
	c0-1.809,0.465-3.018,1.395-3.629s2.385-0.917,4.365-0.917h0.749c1.98,0,3.432,0.306,4.353,0.917S618.522,113.239,618.522,115.048z
	 M612.788,111.845h-0.749c-1.67,0-2.819,0.177-3.448,0.529c-0.629,0.354-0.951,1.142-0.969,2.363h9.558
	c-0.018-1.222-0.341-2.01-0.969-2.363C615.582,112.021,614.441,111.845,612.788,111.845z"/>
<path fill="#9A9A9A" d="M637.48,111.845c-1.464,0-2.566,0.392-3.307,1.175c-0.74,0.784-1.11,1.925-1.11,3.423v5.27
	c0,0.586-0.225,0.878-0.672,0.878c-0.448,0-0.672-0.292-0.672-0.878v-10.487c0-0.603,0.207-0.904,0.62-0.904
	c0.482,0,0.724,0.311,0.724,0.931v0.878c1.016-1.085,2.488-1.627,4.417-1.627h0.749c1.979,0,3.431,0.306,4.353,0.917
	c0.921,0.611,1.382,1.82,1.382,3.629v6.664c0,0.586-0.216,0.878-0.646,0.878c-0.465,0-0.697-0.292-0.697-0.878v-6.639
	c0-0.74-0.073-1.325-0.22-1.756s-0.422-0.754-0.826-0.969c-0.405-0.216-0.844-0.353-1.317-0.413s-1.149-0.091-2.027-0.091H637.48z"
	/>
<path fill="#9A9A9A" d="M658.962,117.837c0,1.396,0.298,2.282,0.892,2.661s1.683,0.568,3.268,0.568c0.603,0,0.904,0.206,0.904,0.619
	c0,0.482-0.302,0.724-0.904,0.724c-1.859,0-3.242-0.31-4.146-0.93c-0.904-0.62-1.356-1.825-1.356-3.616v-6.044
	c-0.534-0.035-0.801-0.268-0.801-0.698c0-0.378,0.267-0.585,0.801-0.619v-2.687c0-0.62,0.207-0.93,0.62-0.93
	c0.481,0,0.723,0.31,0.723,0.93v2.687h3.565c0.619,0,0.93,0.241,0.93,0.723c0,0.413-0.311,0.62-0.93,0.62h-3.565V117.837z"/>
</svg>
